<svg width="170" height="46" fill="none" xmlns="http://www.w3.org/2000/svg"><path d="M52.643 33h3.998v-5.374l1.967-2.4L63.788 33h4.782l-7.1-10.442 7.017-8.467h-4.792l-6.804 8.337h-.25v-8.337h-3.998V33Zm23.219.277c4.303 0 6.98-2.945 6.98-7.313 0-4.394-2.677-7.33-6.98-7.33-4.303 0-6.98 2.936-6.98 7.33 0 4.368 2.677 7.313 6.98 7.313Zm.019-3.047c-1.986 0-3.001-1.819-3.001-4.293 0-2.475 1.015-4.303 3-4.303 1.949 0 2.964 1.828 2.964 4.303 0 2.474-1.015 4.293-2.963 4.293Zm13.452-16.14H85.4V33h3.933V14.09ZM92.483 33h3.934V18.818h-3.933V33Zm1.977-16.01c1.172 0 2.132-.895 2.132-1.994 0-1.09-.96-1.985-2.132-1.985-1.164 0-2.124.895-2.124 1.985 0 1.098.96 1.994 2.124 1.994ZM99.568 33h3.933v-4.506l1.062-1.21L108.431 33h4.607l-5.53-8.042 5.263-6.14h-4.515l-4.543 5.383h-.212v-10.11h-3.933V33Zm19.176.268c2.096 0 3.454-.914 4.146-2.235h.111V33h3.73v-9.565c0-3.38-2.862-4.801-6.02-4.801-3.398 0-5.632 1.625-6.177 4.21l3.638.295c.268-.942 1.108-1.634 2.521-1.634 1.338 0 2.105.674 2.105 1.837v.056c0 .914-.97 1.034-3.435 1.274-2.807.258-5.327 1.2-5.327 4.367 0 2.807 2.003 4.229 4.708 4.229Zm1.127-2.715c-1.21 0-2.078-.563-2.078-1.643 0-1.108.915-1.653 2.299-1.847.859-.12 2.263-.323 2.733-.637v1.505c0 1.487-1.228 2.622-2.954 2.622ZM129.782 33h3.934v-8.023c0-1.745 1.274-2.946 3.01-2.946.544 0 1.292.093 1.662.213v-3.49a5.919 5.919 0 0 0-1.238-.139c-1.588 0-2.89.923-3.407 2.678h-.147v-2.475h-3.814V33Zm16.368 5.614c4.053 0 6.934-1.847 6.934-5.475v-14.32h-3.905V21.2h-.148c-.526-1.154-1.681-2.566-4.053-2.566-3.112 0-5.743 2.419-5.743 7.247 0 4.718 2.557 6.916 5.752 6.916 2.262 0 3.527-1.136 4.044-2.308h.166v2.594c0 1.948-1.246 2.705-2.954 2.705-1.736 0-2.613-.757-2.937-1.615l-3.637.489c.471 2.234 2.659 3.952 6.481 3.952Zm.083-8.772c-1.929 0-2.982-1.532-2.982-3.98 0-2.409 1.034-4.098 2.982-4.098 1.911 0 2.983 1.615 2.983 4.099 0 2.502-1.09 3.98-2.983 3.98Zm16.389 3.435c4.302 0 6.98-2.945 6.98-7.313 0-4.394-2.678-7.33-6.98-7.33-4.303 0-6.98 2.936-6.98 7.33 0 4.368 2.677 7.313 6.98 7.313Zm.018-3.047c-1.985 0-3-1.819-3-4.293 0-2.475 1.015-4.303 3-4.303 1.948 0 2.964 1.828 2.964 4.303 0 2.474-1.016 4.293-2.964 4.293Z" fill="#fff"/><path d="m29.074 12.48 6.019 3.538.055 6.982-.055 6.982-6.019 3.539L23 36.964l-6.074-3.443-6.019-3.54-.055-6.98.055-6.983 6.019-3.539L23 9.036l6.074 3.443Z" stroke="url(#a)" stroke-width="5"/><path d="m23.218 14.838 7.178 4.165-7.444 4.253-7-4.253 7.266-4.165Z" fill="#2354BD"/><path d="M30.396 19.003v8.152l-7.178 3.634-.265-7.546 7.443-4.24Z" fill="#9CB6ED"/><path d="m15.952 19.003 6.972 4.275.294 7.422-7.178-3.544-.088-8.153Z" fill="#1B3283"/><path d="m23.054 6.308 14.425 8.294-14.425 8.602-14.452-8.602 14.452-8.294Z" fill="#215CDA" fill-opacity=".62"/><defs><linearGradient id="a" x1="23.358" y1="7.238" x2="23.358" y2="38.763" gradientUnits="userSpaceOnUse"><stop stop-color="#2A6BF5"/><stop offset="1" stop-color="#1546B0"/></linearGradient></defs></svg>