<svg width="94" height="91" viewBox="0 0 94 91" fill="none" xmlns="http://www.w3.org/2000/svg">
    <path d="M36.4988 51.8345C50.8125 51.8345 62.416 40.2309 62.416 25.9172C62.416 11.6035 50.8125 0 36.4988 0C22.1851 0 10.5815 11.6035 10.5815 25.9172C10.5815 40.2309 22.1851 51.8345 36.4988 51.8345Z" fill="#FE7224"/>
    <path d="M2 43.5024L47 21.6167L92 43.5024V35.8232L47 13.9375L2 35.8232V43.5024Z" stroke="#212121" stroke-width="3" stroke-linecap="round" stroke-linejoin="round"/>
    <path d="M8.02832 42.5042V88.5792C8.02832 88.5792 86.1256 88.4448 85.972 88.5792V42.5042" stroke="#212121" stroke-width="3" stroke-linecap="round" stroke-linejoin="round"/>
    <path d="M72.9558 62.5659H47.0386V88.4831H72.9558V62.5659Z" stroke="#212121" stroke-width="3" stroke-linecap="round" stroke-linejoin="round"/>
    <path d="M63.3947 70.7443L59.9967 69.8419L56.5986 70.7443V62.5659H63.3947V70.7443Z" stroke="#212121" stroke-width="2" stroke-linecap="round" stroke-linejoin="round"/>
    <path d="M46.9617 62.5659H21.0444V88.4831H46.9617V62.5659Z" stroke="#212121" stroke-width="3" stroke-linecap="round" stroke-linejoin="round"/>
    <path d="M37.4011 70.7443L34.003 69.8419L30.605 70.7443V62.5659H37.4011V70.7443Z" stroke="#212121" stroke-width="2" stroke-linecap="round" stroke-linejoin="round"/>
    <path d="M60.2854 36.572H34.3682V62.4893H60.2854V36.572Z" stroke="#212121" stroke-width="3" stroke-linecap="round" stroke-linejoin="round"/>
    <path d="M50.7244 44.7312L47.3072 43.848L43.9092 44.7312V36.572H50.7244V44.7312Z" stroke="#212121" stroke-width="2" stroke-linecap="round" stroke-linejoin="round"/>
</svg>
