<svg width="82" height="90" viewBox="0 0 82 90" fill="none" xmlns="http://www.w3.org/2000/svg">
    <path d="M24.4122 74.7304C37.8947 74.7304 48.8244 63.8007 48.8244 50.3182C48.8244 36.8357 37.8947 25.906 24.4122 25.906C10.9297 25.906 0 36.8357 0 50.3182C0 63.8007 10.9297 74.7304 24.4122 74.7304Z" fill="#FE7224"/>
    <path d="M21.7905 50.3V6.90052C21.7905 5.60082 22.3068 4.35436 23.2259 3.43533C24.1449 2.5163 25.3914 2 26.6911 2H75.0995C76.3992 2 77.6457 2.5163 78.5647 3.43533C79.4838 4.35436 80.0001 5.60082 80.0001 6.90052V77.931C80.0001 79.2307 79.4838 80.4771 78.5647 81.3962C77.6457 82.3152 76.3992 82.8315 75.0995 82.8315H39.8736" stroke="#42210B" stroke-width="3" stroke-linecap="round" stroke-linejoin="round"/>
    <path d="M70.1987 11.7466H31.5913V24.8026H70.1987V11.7466Z" stroke="#42210B" stroke-width="3" stroke-linecap="round" stroke-linejoin="round"/>
    <path d="M70.1991 53.446V73.03H64.0146V53.446H70.1991Z" stroke="#42210B" stroke-width="3" stroke-linecap="round" stroke-linejoin="round"/>
    <path d="M21.9897 34.6038H78.4633" stroke="#42210B" stroke-width="3" stroke-linecap="round" stroke-linejoin="round"/>
    <path d="M47.812 73.0305H54.34" stroke="#42210B" stroke-width="3" stroke-linecap="round" stroke-linejoin="round"/>
    <path d="M47.812 63.4824H54.34" stroke="#42210B" stroke-width="3" stroke-linecap="round" stroke-linejoin="round"/>
    <path d="M47.812 53.9348H54.34" stroke="#42210B" stroke-width="3" stroke-linecap="round" stroke-linejoin="round"/>
    <path d="M47.812 44.4045H54.34" stroke="#42210B" stroke-width="3" stroke-linecap="round" stroke-linejoin="round"/>
    <path d="M64.0869 44.4045H70.6149" stroke="#42210B" stroke-width="3" stroke-linecap="round" stroke-linejoin="round"/>
    <path d="M31.5371 44.4045H38.0651" stroke="#42210B" stroke-width="3" stroke-linecap="round" stroke-linejoin="round"/>
    <path d="M26.3662 57.2617V64.7662H16.3843V57.2617" stroke="#42210B" stroke-width="3" stroke-linecap="round" stroke-linejoin="round"/>
    <path d="M27.6127 57.2617H38.8604V88.4912H3.8877V57.2617H16.3831" stroke="#42210B" stroke-width="3" stroke-linecap="round" stroke-linejoin="round"/>
    <path d="M3.8877 57.2619L8.87863 52.271H35.1172L38.8604 57.2619" stroke="#42210B" stroke-width="3" stroke-linecap="round" stroke-linejoin="round"/>
    <path d="M17.632 52.271L16.3843 57.2619" stroke="#42210B" stroke-width="3" stroke-linecap="round" stroke-linejoin="round"/>
    <path d="M26.3649 57.2619L25.1172 52.271" stroke="#42210B" stroke-width="3" stroke-linecap="round" stroke-linejoin="round"/>
    <path d="M9.42139 81.4209H13.2008" stroke="#42210B" stroke-width="3" stroke-linecap="round" stroke-linejoin="round"/>
    <path d="M9.42139 75.7969H15.7324" stroke="#42210B" stroke-width="3" stroke-linecap="round" stroke-linejoin="round"/>
</svg>
