<svg width="84" height="92" viewBox="0 0 84 92" fill="none" xmlns="http://www.w3.org/2000/svg">
    <path d="M32.1952 75.2706C46.7056 75.2706 58.4686 63.5076 58.4686 48.9972C58.4686 34.4869 46.7056 22.7239 32.1952 22.7239C17.6849 22.7239 5.92188 34.4869 5.92188 48.9972C5.92188 63.5076 17.6849 75.2706 32.1952 75.2706Z" fill="#FE7224"/>
    <path d="M51.3698 17.1189C8.04186 3.41991 0.0215728 26.2086 43.3495 39.9076L50.2636 42.7101C98.0534 57.8288 89.775 84.0284 41.9852 68.9097" stroke="#212121" stroke-width="3" stroke-linecap="round" stroke-linejoin="round" stroke-dasharray="4.82 4.82"/>
    <path d="M28.2312 55.5056H40.5658V89.7255H2.23438V55.5056H15.915" stroke="#212121" stroke-width="3" stroke-linecap="round" stroke-linejoin="round"/>
    <path d="M26.8669 55.5056V63.7103H15.915V55.5056" stroke="#212121" stroke-width="3" stroke-linecap="round" stroke-linejoin="round"/>
    <path d="M2.23438 55.5055L7.71029 50.0295H36.4543L40.5658 55.5055" stroke="#212121" stroke-width="3" stroke-linecap="round" stroke-linejoin="round"/>
    <path d="M17.2978 50.0295L15.915 55.5055" stroke="#212121" stroke-width="3" stroke-linecap="round" stroke-linejoin="round"/>
    <path d="M26.8668 55.5055L25.5024 50.0295" stroke="#212121" stroke-width="3" stroke-linecap="round" stroke-linejoin="round"/>
    <path d="M8.30029 81.9817H12.4303" stroke="#212121" stroke-width="3" stroke-linecap="round" stroke-linejoin="round"/>
    <path d="M8.30029 75.8237H15.2143" stroke="#212121" stroke-width="3" stroke-linecap="round" stroke-linejoin="round"/>
    <path d="M70.508 17.5613C72.6158 17.5613 74.3245 15.8526 74.3245 13.7448C74.3245 11.6369 72.6158 9.92822 70.508 9.92822C68.4001 9.92822 66.6914 11.6369 66.6914 13.7448C66.6914 15.8526 68.4001 17.5613 70.508 17.5613Z" stroke="#212121" stroke-width="3" stroke-linecap="round" stroke-linejoin="round"/>
    <path d="M81.9764 13.4496C81.9764 20.3268 70.5268 30.9283 70.5268 30.9283C70.5268 30.9283 59.0771 20.3268 59.0771 13.4496C59.0771 10.413 60.2834 7.50075 62.4307 5.35352C64.5779 3.2063 67.4902 2 70.5268 2C73.5634 2 76.4757 3.2063 78.6229 5.35352C80.7701 7.50075 81.9764 10.413 81.9764 13.4496Z" stroke="#212121" stroke-width="3" stroke-linecap="round" stroke-linejoin="round"/>
</svg>
