<svg width="140" height="140" viewBox="0 0 140 140" fill="none" xmlns="http://www.w3.org/2000/svg">
    <path d="M58.0342 70.6125C74.3438 70.6125 87.5654 57.391 87.5654 41.0813C87.5654 24.7716 74.3438 11.55 58.0342 11.55C41.7245 11.55 28.5029 24.7716 28.5029 41.0813C28.5029 57.391 41.7245 70.6125 58.0342 70.6125Z" fill="#FE7224"/>
    <path d="M18.7251 61.1187L70.0001 36.1812L121.275 61.1187V52.3687L70.0001 27.4312L18.7251 52.3687V61.1187Z" stroke="#212121" stroke-width="3" stroke-linecap="round" stroke-linejoin="round"/>
    <path d="M25.5938 59.9812V112.481C25.5938 112.481 114.581 112.328 114.406 112.481V59.9812" stroke="#212121" stroke-width="3" stroke-linecap="round" stroke-linejoin="round"/>
    <path d="M99.5752 82.8406H70.0439V112.372H99.5752V82.8406Z" stroke="#212121" stroke-width="3" stroke-linecap="round" stroke-linejoin="round"/>
    <path d="M88.6813 92.1593L84.8094 91.1312L80.9375 92.1593V82.8406H88.6813V92.1593Z" stroke="#212121" stroke-width="2" stroke-linecap="round" stroke-linejoin="round"/>
    <path d="M69.9561 82.8406H40.4248V112.372H69.9561V82.8406Z" stroke="#212121" stroke-width="3" stroke-linecap="round" stroke-linejoin="round"/>
    <path d="M59.0626 92.1593L55.1907 91.1312L51.3188 92.1593V82.8406H59.0626V92.1593Z" stroke="#212121" stroke-width="2" stroke-linecap="round" stroke-linejoin="round"/>
    <path d="M85.1377 53.2219H55.6064V82.7532H85.1377V53.2219Z" stroke="#212121" stroke-width="3" stroke-linecap="round" stroke-linejoin="round"/>
    <path d="M74.2436 62.5188L70.3499 61.5126L66.478 62.5188V53.2219H74.2436V62.5188Z" stroke="#212121" stroke-width="2" stroke-linecap="round" stroke-linejoin="round"/>
</svg>
