<svg width="256" height="269" viewBox="0 0 256 269" fill="none" xmlns="http://www.w3.org/2000/svg">
<path d="M171.709 50.4589C186.296 59.648 198.496 72.4628 205.511 88.2114C212.401 103.678 212.23 120.868 210.58 137.719C208.898 154.906 205.912 172.233 195.91 186.31C185.477 200.993 170.743 212.754 153.519 218.023C136.388 223.264 118.23 220.02 100.93 215.368C83.6175 210.713 65.5759 205.025 54.0643 191.282C42.7164 177.734 42.2601 158.929 39.092 141.543C35.8725 123.874 29.5262 105.854 35.4056 88.884C41.4497 71.4388 55.6125 57.8421 71.4046 48.2778C86.7447 38.9872 104.745 35.6403 122.675 36.0302C140.061 36.4082 156.995 41.1901 171.709 50.4589Z" fill="#F4F5F6"/>
<g filter="url(#filter0_d)">
<g clip-path="url(#clip0)">
<rect width="120" height="166" rx="24" transform="matrix(-0.965926 -0.258819 -0.258819 0.965926 208.245 34.7124)" fill="#FCFCFD"/>
<path d="M114.706 135.607C92.559 129.673 79.416 106.909 85.3503 84.7616C91.2845 62.6147 114.049 49.4717 136.196 55.406C158.343 61.3402 171.486 84.1045 165.551 106.251C159.617 128.398 136.853 141.541 114.706 135.607Z" fill="url(#paint0_linear)"/>
<path fillRule="evenodd" clipRule="evenodd" d="M166.879 92.652C162.29 93.6912 157.647 91.9279 152.95 87.3623C145.156 79.7878 143.475 75.7387 132.784 80.1144C122.092 84.49 117.259 76.4146 111.438 69.4669C108.907 66.4456 104.893 63.5399 100.56 62.2785C93.3644 67.6611 87.8563 75.4084 85.3501 84.7618C83.4252 91.9454 83.5075 99.194 85.2532 105.912C121.885 111.679 147.104 115.414 160.91 117.117C162.921 113.815 164.5 110.175 165.551 106.252C166.772 101.694 167.186 97.11 166.879 92.652Z" fill="url(#paint1_linear)"/>
<path fillRule="evenodd" clipRule="evenodd" d="M99.8653 77.4062L113.547 71.8284L117.569 68.1285L121.227 72.4883L125.106 90.9836L95.6637 85.3822L99.8653 77.4062Z" fill="url(#paint2_linear)"/>
<path opacity="0.1" d="M122.339 106.851C114.256 104.685 109.459 96.3756 111.625 88.2919C113.791 80.2083 122.099 75.4111 130.183 77.5771C138.267 79.7431 143.064 88.0521 140.898 96.1357C138.732 104.219 130.423 109.017 122.339 106.851Z" fill="url(#paint3_linear)"/>
<path d="M123.731 101.923C118.342 100.479 115.144 94.9394 116.588 89.5503C118.032 84.1613 123.571 80.9631 128.961 82.4071C134.35 83.8511 137.548 89.3904 136.104 94.7795C134.66 100.169 129.12 103.367 123.731 101.923Z" fill="url(#paint4_linear)"/>
<path fillRule="evenodd" clipRule="evenodd" d="M110.194 83.5361L117.007 75.9711L117.569 68.1285L121.227 72.4883L125.106 90.9836L95.6637 85.3822L110.194 83.5361Z" fill="url(#paint5_linear)"/>
<path fillRule="evenodd" clipRule="evenodd" d="M156.133 109.136C159.864 102.222 161.21 95.7931 160.173 89.8482L160.67 89.6048C162.772 95.2887 162.675 101.302 160.378 107.644L157.972 108.734L156.133 109.136Z" fill="url(#paint6_linear)"/>
<path fillRule="evenodd" clipRule="evenodd" d="M156.133 109.136C159.864 102.222 161.211 95.793 160.173 89.8481C161.732 95.4265 160.998 101.722 157.972 108.734C157.972 108.734 157.359 108.868 156.133 109.136Z" fill="url(#paint7_linear)"/>
<path fillRule="evenodd" clipRule="evenodd" d="M160.596 89.9654C158.894 90.6961 158.016 91.5995 157.96 92.6757C157.303 92.1088 157.066 91.4829 157.25 90.7979C157.525 89.7703 159.021 88.9008 160.513 89.6949L160.55 89.8277L160.596 89.9654Z" fill="url(#paint8_linear)"/>
<path fillRule="evenodd" clipRule="evenodd" d="M160.82 89.5507C158.932 87.6568 157.181 87.4902 155.567 89.0511C157.008 88.8993 158.103 89.0043 158.853 89.366C159.603 89.7277 160.247 89.8528 160.783 89.7411L160.82 89.5507Z" fill="url(#paint9_linear)"/>
<path fillRule="evenodd" clipRule="evenodd" d="M160.562 90.0173C160.834 88.5644 160.688 87.4852 160.122 86.7798C159.557 86.0744 158.494 85.944 156.935 86.3885C158.639 87.0428 159.617 87.8594 159.869 88.8383C160.121 89.8171 160.352 90.2102 160.562 90.0173Z" fill="url(#paint10_linear)"/>
<path fillRule="evenodd" clipRule="evenodd" d="M160.762 89.6173C162.195 88.1146 163.357 87.8117 164.246 88.7086C164.216 87.6421 163.773 87.0056 162.917 86.7989C162.061 86.5923 161.233 87.5176 160.435 89.5749L160.762 89.6173Z" fill="url(#paint11_linear)"/>
<path fillRule="evenodd" clipRule="evenodd" d="M160.691 89.9138C162.434 89.8274 163.398 90.5361 163.585 92.0398C164.367 91.0812 164.343 90.199 163.515 89.393C162.686 88.587 161.624 88.6849 160.328 89.6866L160.691 89.9138Z" fill="url(#paint12_linear)"/>
<path d="M160.686 90.1914C160.464 90.132 160.333 89.9044 160.392 89.6829C160.451 89.4615 160.679 89.33 160.9 89.3894C161.122 89.4487 161.253 89.6764 161.194 89.8978C161.135 90.1193 160.907 90.2507 160.686 90.1914Z" fill="url(#paint13_linear)"/>
<path d="M160.115 90.1819C159.893 90.1225 159.762 89.8949 159.821 89.6734C159.881 89.4519 160.108 89.3205 160.33 89.3799C160.551 89.4392 160.683 89.6668 160.623 89.8883C160.564 90.1098 160.336 90.2412 160.115 90.1819Z" fill="url(#paint14_linear)"/>
<path fillRule="evenodd" clipRule="evenodd" d="M94.7708 67.525C90.4288 72.2777 87.1313 78.1142 85.35 84.7618C84.5719 87.6658 84.1218 90.5804 83.977 93.4662C87.4018 94.2765 89.5576 94.4884 90.4442 94.1017C92.1489 93.3582 104.139 92.6287 126.413 91.9132C119.085 86.4366 113.862 82.6493 110.743 80.5511L102.738 69.7135L98.0888 70.3991L94.7708 67.525Z" fill="url(#paint15_linear)"/>
<path fillRule="evenodd" clipRule="evenodd" d="M93.9669 68.4311C90.0215 73.0123 87.0196 78.5306 85.35 84.7616C84.5719 87.6656 84.1218 90.5802 83.977 93.4661C87.4018 94.2764 89.5576 94.4882 90.4442 94.1015C92.1489 93.3581 104.139 92.6286 126.413 91.913L107.345 83.1591L94.8868 81.3078L97.3397 75.0188L93.9669 68.4311Z" fill="url(#paint16_linear)"/>
<path fillRule="evenodd" clipRule="evenodd" d="M166.706 100.193C156.942 95.7062 144.535 93.079 129.485 92.3116C144.589 102.056 155.084 110.292 160.969 117.02C162.952 113.744 164.51 110.136 165.551 106.252C166.092 104.233 166.475 102.209 166.706 100.193Z" fill="url(#paint17_linear)"/>
<path fillRule="evenodd" clipRule="evenodd" d="M141.568 108.437L143.432 108.165L145.908 107.245C148.641 101.078 149.157 95.0867 147.457 89.27L146.945 89.4781C147.565 95.4809 145.773 101.801 141.568 108.437Z" fill="url(#paint18_linear)"/>
<path fillRule="evenodd" clipRule="evenodd" d="M141.568 108.437C142.811 108.255 143.432 108.164 143.432 108.164C146.939 101.38 148.11 95.1515 146.944 89.478C147.565 95.4808 145.772 101.8 141.568 108.437Z" fill="url(#paint19_linear)"/>
<path fillRule="evenodd" clipRule="evenodd" d="M147.358 89.6246L147.321 89.484L147.294 89.349C145.861 88.4527 144.309 89.2158 143.962 90.2216C143.731 90.8922 143.924 91.5331 144.54 92.1444C144.67 91.0747 145.61 90.2348 147.358 89.6246Z" fill="url(#paint20_linear)"/>
<path fillRule="evenodd" clipRule="evenodd" d="M147.327 89.3031C146.117 86.9184 144.503 86.2189 142.486 87.2048C143.903 87.5056 144.912 87.9439 145.514 88.5197C146.115 89.0956 146.689 89.4133 147.233 89.4729L147.327 89.3031Z" fill="url(#paint21_linear)"/>
<path fillRule="evenodd" clipRule="evenodd" d="M147.344 89.5704C147.912 88.2058 147.993 87.1197 147.586 86.3122C147.18 85.5047 146.168 85.1562 144.55 85.2668C146.081 86.2612 146.868 87.2633 146.911 88.2732C146.954 89.283 147.098 89.7154 147.344 89.5704Z" fill="url(#paint22_linear)"/>
<path fillRule="evenodd" clipRule="evenodd" d="M147.548 89.289C149.082 87.8899 150.262 87.6688 151.087 88.6255C151.131 87.5595 150.734 86.8936 149.894 86.6278C149.055 86.3619 148.165 87.2273 147.224 89.2239L147.548 89.289Z" fill="url(#paint23_linear)"/>
<path fillRule="evenodd" clipRule="evenodd" d="M147.457 89.5796C149.201 89.615 150.114 90.3892 150.195 91.9023C151.042 91.0006 151.08 90.1188 150.31 89.257C149.54 88.3952 148.473 88.4188 147.111 89.3277L147.457 89.5796Z" fill="url(#paint24_linear)"/>
<path d="M147.459 89.8647C147.238 89.8054 147.106 89.5777 147.166 89.3563C147.225 89.1348 147.453 89.0034 147.674 89.0627C147.896 89.1221 148.027 89.3497 147.968 89.5712C147.908 89.7926 147.681 89.9241 147.459 89.8647Z" fill="url(#paint25_linear)"/>
<path d="M146.891 89.8154C146.669 89.7561 146.538 89.5284 146.597 89.307C146.657 89.0855 146.884 88.9541 147.106 89.0134C147.327 89.0727 147.459 89.3004 147.399 89.5219C147.34 89.7433 147.112 89.8748 146.891 89.8154Z" fill="url(#paint26_linear)"/>
<path fillRule="evenodd" clipRule="evenodd" d="M164.179 110.471C163.744 109.027 162.521 107.884 160.51 107.042C155.183 104.813 158.327 98.8876 150.954 97.9343C143.581 96.981 135.185 93.4072 129.551 92.3464L140.741 107.573L162.638 113.98C163.201 112.844 163.716 111.673 164.179 110.471Z" fill="url(#paint27_linear)"/>
<path fillRule="evenodd" clipRule="evenodd" d="M163.294 112.591C142.67 93.1859 116.452 84.9476 84.6406 87.8763C80.6669 109.004 93.5962 129.951 114.706 135.607C134.647 140.95 155.088 130.827 163.294 112.591Z" fill="url(#paint28_linear)"/>
<path fillRule="evenodd" clipRule="evenodd" d="M132.219 136.477C128.879 133.1 127.557 127.421 128.285 120.398C129.985 104.015 125.08 96.7218 104.124 97.0491C91.3841 97.2481 84.8005 94.7216 84.3727 89.4695C81.3222 110.048 94.1269 130.093 114.706 135.607C120.61 137.189 126.557 137.415 132.219 136.477Z" fill="url(#paint29_linear)"/>
<path fillRule="evenodd" clipRule="evenodd" d="M153.932 125.719C154.593 120.858 151.99 116.565 146.124 112.842C133.923 105.097 133.755 92.4187 120.844 94.5114C112.236 95.9065 106.147 96.7399 102.574 97.0115C118.567 96.802 126.743 101.102 127.102 109.912C127.552 120.951 126.298 132.361 130.906 136.673C139.571 135.521 147.632 131.647 153.932 125.719Z" fill="url(#paint30_linear)"/>
<path fillRule="evenodd" clipRule="evenodd" d="M130.945 136.667C120.503 135.006 122.029 124.22 114.818 122.288C107.591 120.351 97.9689 119.784 96.7785 110.306C96.076 104.713 91.792 99.6678 83.9267 95.1702C83.7642 113.641 96.0355 130.605 114.706 135.607C120.169 137.071 125.669 137.374 130.945 136.667L130.945 136.667Z" fill="url(#paint31_linear)"/>
<path fillRule="evenodd" clipRule="evenodd" d="M160.464 77.6506C160.195 75.3645 159.169 74.1663 157.384 74.056C154.708 73.8905 154.85 76.3396 152.108 73.9875C149.365 71.6354 146.162 73.8182 146.162 73.8182C146.162 73.8182 150.929 75.0957 160.464 77.6506Z" fill="url(#paint32_linear)"/>
<path fillRule="evenodd" clipRule="evenodd" d="M114.641 59.166C125.461 62.0651 130.871 63.5147 130.871 63.5147C130.871 63.5147 128.961 59.552 124.932 60.3074C120.902 61.0629 122.432 58.7371 119.708 57.381C117.891 56.477 116.203 57.072 114.641 59.166Z" fill="url(#paint33_linear)"/>
</g>
</g>
<g filter="url(#filter1_d)">
<rect width="128" height="160" rx="24" transform="matrix(-0.965926 -0.258819 -0.258819 0.965926 213.05 36)" fill="#FCFCFD"/>
<rect x="-0.612372" y="0.353553" width="127" height="159" rx="23.5" transform="matrix(-0.965926 -0.258819 -0.258819 0.965926 211.937 35.8536)" stroke="#F4F5F6"/>
</g>
<rect x="96" y="67" width="64" height="64" rx="32" fill="#92A5EF"/>
<path d="M124.922 90.25H125.953V91.2812H124.922V90.25Z" fill="white"/>
<path d="M129.047 90.25H130.078V91.2812H129.047V90.25Z" fill="white"/>
<path d="M127.5 94.8906C128.367 94.8906 129.047 94.3244 129.047 93.6016H128.016C128.016 93.6924 127.82 93.8594 127.5 93.8594C127.18 93.8594 126.984 93.6924 126.984 93.6016H125.953C125.953 94.3244 126.633 94.8906 127.5 94.8906Z" fill="white"/>
<path d="M140.654 105.253L138.693 103.292L137.964 104.021L139.925 105.982C140.237 106.292 140.484 106.662 140.653 107.069C140.821 107.475 140.907 107.912 140.906 108.352V111.52C140.906 111.895 140.756 112.256 140.49 112.522C140.225 112.788 139.864 112.937 139.488 112.938H138.328V110.359H139.359V109.328H137.297V100.047C137.297 99.9101 137.243 99.779 137.146 99.6823C137.049 99.5856 136.918 99.5312 136.781 99.5312H133.985L131.044 97.6597L130.617 95.9526L130.798 95.8611C131.203 95.6577 131.543 95.3454 131.78 94.9595C132.017 94.5735 132.142 94.1291 132.141 93.6761V93.3438H132.398C132.877 93.3432 133.336 93.1529 133.674 92.8146C134.012 92.4762 134.203 92.0175 134.203 91.5391V91.0234C134.203 90.5517 134.018 90.0989 133.688 89.7618C133.358 89.4247 132.909 89.2299 132.437 89.2192C132.581 88.9546 132.656 88.6582 132.656 88.357V86.7695C132.655 85.7784 132.261 84.8282 131.56 84.1274C130.859 83.4266 129.909 83.0324 128.918 83.0312H126.082C125.091 83.0324 124.141 83.4266 123.44 84.1274C122.739 84.8282 122.345 85.7784 122.344 86.7695V88.357C122.344 88.6582 122.419 88.9546 122.563 89.2192C122.091 89.2299 121.642 89.4246 121.312 89.7617C120.982 90.0988 120.797 90.5517 120.797 91.0234V91.5391C120.797 92.0175 120.988 92.4762 121.326 92.8146C121.664 93.1529 122.123 93.3432 122.602 93.3438H122.859V93.6956C122.858 94.1508 122.984 94.5973 123.223 94.9845C123.462 95.3717 123.805 95.6841 124.213 95.8862L124.379 95.9689L123.956 97.6597L121.015 99.5312H118.219C118.082 99.5312 117.951 99.5856 117.854 99.6823C117.757 99.779 117.703 99.9101 117.703 100.047V101.896L115.792 103.807L116.521 104.536L117.703 103.354V109.328H115.641V110.359H116.672V112.938H115.512C115.136 112.937 114.775 112.788 114.51 112.522C114.244 112.256 114.094 111.895 114.094 111.52V108.352C114.093 107.912 114.179 107.475 114.347 107.069C114.516 106.662 114.763 106.292 115.075 105.982L115.49 105.568L114.76 104.839L114.346 105.253C113.938 105.659 113.614 106.142 113.394 106.674C113.174 107.206 113.061 107.776 113.062 108.352V111.52C113.063 112.169 113.322 112.791 113.781 113.251C114.24 113.71 114.862 113.968 115.512 113.969H139.488C140.138 113.968 140.76 113.71 141.219 113.251C141.678 112.791 141.937 112.169 141.937 111.52V108.352C141.939 107.776 141.826 107.206 141.606 106.674C141.386 106.142 141.062 105.659 140.654 105.253ZM125.953 100.562H129.047V104.172H125.953V100.562ZM129.776 99.5312L130.666 98.6418L132.064 99.5312H129.776ZM123.783 89.0389C123.659 88.9738 123.555 88.8757 123.483 88.7554C123.411 88.6351 123.374 88.4973 123.375 88.357V87.9753L125.246 86.9356C125.935 86.5501 126.711 86.3477 127.5 86.3477C128.289 86.3477 129.065 86.5501 129.754 86.9356L131.625 87.9753V88.357C131.625 88.497 131.587 88.6344 131.515 88.7544C131.443 88.8745 131.34 88.9728 131.216 89.0389C131.093 89.1049 130.954 89.1362 130.814 89.1295C130.674 89.1227 130.539 89.0782 130.423 89.0005L129.216 88.1963C128.708 87.8564 128.111 87.675 127.5 87.675C126.889 87.675 126.292 87.8564 125.784 88.1963L124.577 89.0005C124.461 89.0793 124.326 89.1246 124.186 89.1314C124.046 89.1382 123.907 89.1062 123.783 89.0389ZM133.172 91.0234V91.5391C133.172 91.7441 133.09 91.9407 132.945 92.0857C132.8 92.2307 132.603 92.3123 132.398 92.3125H132.141V90.25H132.398C132.603 90.2502 132.8 90.3318 132.945 90.4768C133.09 90.6218 133.172 90.8184 133.172 91.0234ZM126.082 84.0625H128.918C129.636 84.0633 130.324 84.3488 130.831 84.8563C131.339 85.3637 131.624 86.0518 131.625 86.7695V86.7953L130.254 86.0342C129.413 85.563 128.464 85.3156 127.5 85.3156C126.535 85.3156 125.587 85.563 124.746 86.0342L123.375 86.7953V86.7695C123.376 86.0518 123.661 85.3637 124.169 84.8563C124.676 84.3488 125.364 84.0633 126.082 84.0625ZM122.602 92.3125C122.396 92.3123 122.2 92.2307 122.055 92.0857C121.91 91.9407 121.828 91.7441 121.828 91.5391V91.0234C121.828 90.8184 121.91 90.6218 122.055 90.4768C122.2 90.3318 122.396 90.2502 122.602 90.25H122.859V92.3125H122.602ZM123.891 93.6956V90.1435C124.331 90.2074 124.779 90.1059 125.149 89.8586L126.356 89.0543C126.694 88.8277 127.093 88.7068 127.5 88.7068C127.907 88.7068 128.305 88.8277 128.644 89.0543L129.85 89.8586C130.22 90.1058 130.669 90.2073 131.109 90.1435V93.6761C131.11 93.9383 131.038 94.1956 130.9 94.4191C130.763 94.6426 130.566 94.8233 130.332 94.9411L127.846 96.2001C127.738 96.2544 127.619 96.2828 127.498 96.2831C127.378 96.2834 127.259 96.2556 127.15 96.2019L124.674 94.9639C124.438 94.8469 124.24 94.666 124.101 94.4418C123.963 94.2176 123.89 93.9591 123.891 93.6956ZM126.689 97.1245C126.941 97.2499 127.219 97.3148 127.501 97.3141C127.783 97.3134 128.06 97.2471 128.312 97.1204L129.674 96.4307L130.023 97.8266L128.318 99.5312H126.682L124.977 97.8262L125.323 96.4414L126.689 97.1245ZM124.334 98.6417L125.224 99.5312H122.936L124.334 98.6417ZM118.734 100.562H124.922V104.688C124.922 104.824 124.976 104.955 125.073 105.052C125.17 105.149 125.301 105.203 125.437 105.203H129.562C129.699 105.203 129.83 105.149 129.927 105.052C130.024 104.955 130.078 104.824 130.078 104.688V100.562H136.266V109.328H135.75C134.746 109.329 133.776 109.697 133.023 110.361C132.27 111.025 131.784 111.941 131.657 112.938H130.078V110.359C130.078 110.223 130.024 110.091 129.927 109.995C129.83 109.898 129.699 109.844 129.562 109.844H125.437C125.301 109.844 125.17 109.898 125.073 109.995C124.976 110.091 124.922 110.223 124.922 110.359V112.938H123.343C123.216 111.941 122.73 111.025 121.977 110.361C121.224 109.697 120.254 109.329 119.25 109.328H118.734V100.562ZM117.703 112.938V110.359H119.25C119.981 110.36 120.688 110.62 121.246 111.091C121.804 111.563 122.178 112.217 122.301 112.938H117.703ZM125.953 112.938V110.875H129.047V112.938H125.953ZM137.297 112.938H132.699C132.822 112.217 133.196 111.563 133.754 111.091C134.312 110.62 135.019 110.36 135.75 110.359H137.297V112.938Z" fill="white"/>
<path d="M119.766 101.594H120.797V102.625H119.766V101.594Z" fill="white"/>
<path d="M121.828 101.594H123.891V102.625H121.828V101.594Z" fill="white"/>
<path d="M119.766 103.656H123.891V104.688H119.766V103.656Z" fill="white"/>
<path d="M131.625 105.203H133.43C133.908 105.203 134.367 105.012 134.705 104.674C135.044 104.336 135.234 103.877 135.234 103.398V102.109C135.234 101.973 135.18 101.841 135.083 101.745C134.987 101.648 134.855 101.594 134.719 101.594H132.914C132.436 101.594 131.977 101.785 131.639 102.123C131.3 102.461 131.11 102.92 131.109 103.398V104.688C131.109 104.824 131.164 104.955 131.26 105.052C131.357 105.149 131.488 105.203 131.625 105.203ZM132.141 103.398C132.141 103.193 132.222 102.997 132.367 102.852C132.512 102.707 132.709 102.625 132.914 102.625H134.203V103.398C134.203 103.603 134.121 103.8 133.976 103.945C133.831 104.09 133.635 104.172 133.43 104.172H132.141V103.398Z" fill="white"/>
<rect width="12" height="12" rx="4" transform="matrix(-0.965926 -0.258819 -0.258819 0.965926 250.697 84.1055)" fill="#FABDC1"/>
<rect width="4" height="4" rx="2" transform="matrix(0.939693 -0.34202 -0.34202 -0.939693 22.7362 175.254)" fill="#9AC8FF"/>
<rect width="8" height="8" rx="2" transform="matrix(0.939693 -0.34202 -0.34202 -0.939693 32.7362 24.2539)" fill="#92A5EF"/>
<defs>
<filter id="filter0_d" x="33.3698" y="3.65405" width="190.875" height="271.402" filterUnits="userSpaceOnUse" color-interpolation-filters="sRGB">
<feFlood flood-opacity="0" result="BackgroundImageFix"/>
<feColorMatrix in="SourceAlpha" type="matrix" values="0 0 0 0 0 0 0 0 0 0 0 0 0 0 0 0 0 0 127 0" result="hardAlpha"/>
<feMorphology radius="48" operator="erode" in="SourceAlpha" result="effect1_dropShadow"/>
<feOffset dy="64"/>
<feGaussianBlur stdDeviation="32"/>
<feColorMatrix type="matrix" values="0 0 0 0 0.0583333 0 0 0 0 0.0583333 0 0 0 0 0.0583333 0 0 0 0.08 0"/>
<feBlend mode="multiply" in2="BackgroundImageFix" result="effect1_dropShadow"/>
<feBlend mode="normal" in="SourceGraphic" in2="effect1_dropShadow" result="shape"/>
</filter>
<filter id="filter1_d" x="40" y="2.87109" width="181.05" height="235.677" filterUnits="userSpaceOnUse" color-interpolation-filters="sRGB">
<feFlood flood-opacity="0" result="BackgroundImageFix"/>
<feColorMatrix in="SourceAlpha" type="matrix" values="0 0 0 0 0 0 0 0 0 0 0 0 0 0 0 0 0 0 127 0" result="hardAlpha"/>
<feMorphology radius="24" operator="erode" in="SourceAlpha" result="effect1_dropShadow"/>
<feOffset dy="40"/>
<feGaussianBlur stdDeviation="16"/>
<feColorMatrix type="matrix" values="0 0 0 0 0.0583333 0 0 0 0 0.0583333 0 0 0 0 0.0583333 0 0 0 0.12 0"/>
<feBlend mode="multiply" in2="BackgroundImageFix" result="effect1_dropShadow"/>
<feBlend mode="normal" in="SourceGraphic" in2="effect1_dropShadow" result="shape"/>
</filter>
<linearGradient id="paint0_linear" x1="145.605" y1="57.9273" x2="134.039" y2="132.405" gradientUnits="userSpaceOnUse">
<stop stop-color="#EEFFFD"/>
<stop offset="1" stop-color="#B7FFF6"/>
</linearGradient>
<linearGradient id="paint1_linear" x1="137.373" y1="88.6497" x2="135.667" y2="91.9155" gradientUnits="userSpaceOnUse">
<stop stop-color="#EEFFFD"/>
<stop offset="1" stop-color="#B7FFF6"/>
</linearGradient>
<linearGradient id="paint2_linear" x1="111.076" y1="73.2832" x2="112.435" y2="88.29" gradientUnits="userSpaceOnUse">
<stop stop-color="#30A0DE"/>
<stop offset="1" stop-color="#194383"/>
</linearGradient>
<linearGradient id="paint3_linear" x1="130.183" y1="77.5771" x2="126.847" y2="98.8669" gradientUnits="userSpaceOnUse">
<stop stop-color="#F9BB49"/>
<stop offset="1" stop-color="#F08523"/>
</linearGradient>
<linearGradient id="paint4_linear" x1="128.961" y1="82.4071" x2="126.736" y2="96.6003" gradientUnits="userSpaceOnUse">
<stop stop-color="#F9BB49"/>
<stop offset="1" stop-color="#F08523"/>
</linearGradient>
<linearGradient id="paint5_linear" x1="114.933" y1="75.7677" x2="113.805" y2="90.4945" gradientUnits="userSpaceOnUse">
<stop stop-color="#30A0DE"/>
<stop offset="1" stop-color="#194383"/>
</linearGradient>
<linearGradient id="paint6_linear" x1="159.113" y1="103.408" x2="164.17" y2="89.3717" gradientUnits="userSpaceOnUse">
<stop stop-color="#DB593D"/>
<stop offset="1" stop-color="#F88461"/>
</linearGradient>
<linearGradient id="paint7_linear" x1="159.57" y1="98.3475" x2="160.884" y2="88.8751" gradientUnits="userSpaceOnUse">
<stop stop-color="#CD4C30"/>
<stop offset="1" stop-color="#F88461" stop-opacity="0"/>
</linearGradient>
<linearGradient id="paint8_linear" x1="158.821" y1="93.458" x2="158.862" y2="90.0507" gradientUnits="userSpaceOnUse">
<stop stop-color="#13DBBF"/>
<stop offset="1" stop-color="#08B58B"/>
</linearGradient>
<linearGradient id="paint9_linear" x1="159.947" y1="89.465" x2="159.412" y2="88.4617" gradientUnits="userSpaceOnUse">
<stop stop-color="#13DBBF"/>
<stop offset="1" stop-color="#08B58B"/>
</linearGradient>
<linearGradient id="paint10_linear" x1="156.603" y1="86.0859" x2="159.529" y2="89.0587" gradientUnits="userSpaceOnUse">
<stop stop-color="#13DBBF"/>
<stop offset="1" stop-color="#08B58B"/>
</linearGradient>
<linearGradient id="paint11_linear" x1="163.127" y1="90.6358" x2="162.989" y2="87.6123" gradientUnits="userSpaceOnUse">
<stop stop-color="#13DBBF"/>
<stop offset="1" stop-color="#08B58B"/>
</linearGradient>
<linearGradient id="paint12_linear" x1="159.681" y1="90.4579" x2="163.143" y2="88.6159" gradientUnits="userSpaceOnUse">
<stop stop-color="#13DBBF"/>
<stop offset="1" stop-color="#08B58B"/>
</linearGradient>
<linearGradient id="paint13_linear" x1="161.286" y1="89.7837" x2="160.52" y2="89.9416" gradientUnits="userSpaceOnUse">
<stop stop-color="#E3F35C"/>
<stop offset="1" stop-color="#C3E22F"/>
</linearGradient>
<linearGradient id="paint14_linear" x1="160.715" y1="89.7742" x2="159.95" y2="89.9321" gradientUnits="userSpaceOnUse">
<stop stop-color="#E3F35C"/>
<stop offset="1" stop-color="#C3E22F"/>
</linearGradient>
<linearGradient id="paint15_linear" x1="104.679" y1="79.3839" x2="106.811" y2="95.7022" gradientUnits="userSpaceOnUse">
<stop stop-color="#30A0DE"/>
<stop offset="1" stop-color="#194383"/>
</linearGradient>
<linearGradient id="paint16_linear" x1="104.578" y1="83.1581" x2="106.51" y2="95.6544" gradientUnits="userSpaceOnUse">
<stop stop-color="#30A0DE"/>
<stop offset="1" stop-color="#194383"/>
</linearGradient>
<linearGradient id="paint17_linear" x1="129.609" y1="96.6245" x2="147.55" y2="112.445" gradientUnits="userSpaceOnUse">
<stop stop-color="#68C179"/>
<stop offset="1" stop-color="#25A062"/>
</linearGradient>
<linearGradient id="paint18_linear" x1="145.278" y1="102.905" x2="150.182" y2="88.8051" gradientUnits="userSpaceOnUse">
<stop stop-color="#DB593D"/>
<stop offset="1" stop-color="#F88461"/>
</linearGradient>
<linearGradient id="paint19_linear" x1="145.796" y1="97.8438" x2="147.313" y2="88.367" gradientUnits="userSpaceOnUse">
<stop stop-color="#CD4C30"/>
<stop offset="1" stop-color="#F88461" stop-opacity="0"/>
</linearGradient>
<linearGradient id="paint20_linear" x1="145.68" y1="92.9895" x2="145.672" y2="89.6304" gradientUnits="userSpaceOnUse">
<stop stop-color="#13DBBF"/>
<stop offset="1" stop-color="#08B58B"/>
</linearGradient>
<linearGradient id="paint21_linear" x1="146.629" y1="88.5124" x2="146.156" y2="87.4808" gradientUnits="userSpaceOnUse">
<stop stop-color="#13DBBF"/>
<stop offset="1" stop-color="#08B58B"/>
</linearGradient>
<linearGradient id="paint22_linear" x1="144.361" y1="84.6252" x2="147.043" y2="88.073" gradientUnits="userSpaceOnUse">
<stop stop-color="#13DBBF"/>
<stop offset="1" stop-color="#08B58B"/>
</linearGradient>
<linearGradient id="paint23_linear" x1="150.082" y1="90.0501" x2="149.908" y2="87.4693" gradientUnits="userSpaceOnUse">
<stop stop-color="#13DBBF"/>
<stop offset="1" stop-color="#08B58B"/>
</linearGradient>
<linearGradient id="paint24_linear" x1="146.381" y1="90.4183" x2="149.902" y2="88.4355" gradientUnits="userSpaceOnUse">
<stop stop-color="#13DBBF"/>
<stop offset="1" stop-color="#08B58B"/>
</linearGradient>
<linearGradient id="paint25_linear" x1="148.059" y1="89.4571" x2="147.294" y2="89.6149" gradientUnits="userSpaceOnUse">
<stop stop-color="#E3F35C"/>
<stop offset="1" stop-color="#C3E22F"/>
</linearGradient>
<linearGradient id="paint26_linear" x1="147.491" y1="89.4078" x2="146.726" y2="89.5656" gradientUnits="userSpaceOnUse">
<stop stop-color="#E3F35C"/>
<stop offset="1" stop-color="#C3E22F"/>
</linearGradient>
<linearGradient id="paint27_linear" x1="131.227" y1="98.4069" x2="147.118" y2="107.306" gradientUnits="userSpaceOnUse">
<stop stop-color="#68C179"/>
<stop offset="1" stop-color="#25A062"/>
</linearGradient>
<linearGradient id="paint28_linear" x1="119.821" y1="102.494" x2="124.275" y2="128.797" gradientUnits="userSpaceOnUse">
<stop stop-color="#77EBFF"/>
<stop offset="1" stop-color="#4D86DE"/>
</linearGradient>
<linearGradient id="paint29_linear" x1="82.6581" y1="100.499" x2="118.523" y2="152.953" gradientUnits="userSpaceOnUse">
<stop stop-color="#91F6FF"/>
<stop offset="1" stop-color="#4D86DE"/>
</linearGradient>
<linearGradient id="paint30_linear" x1="124.292" y1="98.9419" x2="129.998" y2="138.636" gradientUnits="userSpaceOnUse">
<stop stop-color="#77EBFF"/>
<stop offset="1" stop-color="#4D86DE"/>
</linearGradient>
<linearGradient id="paint31_linear" x1="99.3781" y1="111.359" x2="122.519" y2="150.485" gradientUnits="userSpaceOnUse">
<stop stop-color="#91F6FF"/>
<stop offset="1" stop-color="#4D86DE"/>
</linearGradient>
<linearGradient id="paint32_linear" x1="151.877" y1="73.8765" x2="160.088" y2="79.3662" gradientUnits="userSpaceOnUse">
<stop stop-color="#C1FFF7"/>
<stop offset="1" stop-color="#93E9DE"/>
</linearGradient>
<linearGradient id="paint33_linear" x1="121.127" y1="59.2321" x2="130.444" y2="65.4615" gradientUnits="userSpaceOnUse">
<stop stop-color="#C1FFF7"/>
<stop offset="1" stop-color="#93E9DE"/>
</linearGradient>
<clipPath id="clip0">
<rect width="120" height="166" rx="24" transform="matrix(-0.965926 -0.258819 -0.258819 0.965926 208.245 34.7124)" fill="white"/>
</clipPath>
</defs>
</svg>
