<svg width="256" height="269" viewBox="0 0 256 269" fill="none" xmlns="http://www.w3.org/2000/svg">
<path d="M166.974 37.5826C184.276 41.7887 200.818 51.1236 211.175 65.6079C221.328 79.8065 220.632 98.2635 222.753 115.589C224.926 133.332 231.231 151.896 223.728 168.121C216.15 184.51 198.339 192.699 182.824 201.936C167.174 211.252 151.4 222.676 133.199 222.013C114.957 221.349 99.9204 208.938 85.0336 198.373C70.1838 187.835 53.34 177.834 46.9279 160.791C40.5634 143.875 45.8112 125.144 50.9644 107.82C55.7117 91.8614 63.4178 77.0193 75.3128 65.3688C86.9097 54.0101 101.815 47.5083 117.35 42.7991C133.596 37.8742 150.478 33.5724 166.974 37.5826Z" fill="#F4F5F6"/>
<g filter="url(#filter0_d)">
<g clip-path="url(#clip0)">
<rect x="52.8047" y="34.7124" width="120" height="166" rx="24" transform="rotate(-15 52.8047 34.7124)" fill="#FCFCFD"/>
<path d="M146.344 135.607C168.491 129.673 181.634 106.909 175.699 84.7616C169.765 62.6147 147.001 49.4717 124.854 55.406C102.707 61.3402 89.5639 84.1045 95.4981 106.251C101.432 128.398 124.197 141.541 146.344 135.607Z" fill="url(#paint0_linear)"/>
<path fillRule="evenodd" clipRule="evenodd" d="M94.1707 92.652C98.7591 93.6912 103.402 91.9279 108.1 87.3623C115.894 79.7878 117.574 75.7387 128.266 80.1144C138.958 84.49 143.79 76.4146 149.612 69.4669C152.143 66.4456 156.157 63.5399 160.49 62.2785C167.685 67.6611 173.193 75.4084 175.699 84.7618C177.624 91.9454 177.542 99.194 175.796 105.912C139.165 111.679 113.946 115.414 100.139 117.117C98.1287 113.815 96.5495 110.175 95.4983 106.252C94.2771 101.694 93.8638 97.11 94.1707 92.652Z" fill="url(#paint1_linear)"/>
<path fillRule="evenodd" clipRule="evenodd" d="M161.184 77.4062L147.503 71.8284L143.481 68.1285L139.822 72.4883L135.944 90.9836L165.386 85.3822L161.184 77.4062Z" fill="url(#paint2_linear)"/>
<path opacity="0.1" d="M138.71 106.851C146.794 104.685 151.591 96.3756 149.425 88.2919C147.259 80.2083 138.95 75.4111 130.866 77.5771C122.783 79.7431 117.986 88.0521 120.152 96.1357C122.318 104.219 130.627 109.017 138.71 106.851Z" fill="url(#paint3_linear)"/>
<path d="M137.318 101.923C142.707 100.479 145.905 94.9394 144.461 89.5503C143.017 84.1613 137.478 80.9631 132.089 82.4071C126.7 83.8511 123.502 89.3904 124.946 94.7795C126.39 100.169 131.929 103.367 137.318 101.923Z" fill="url(#paint4_linear)"/>
<path fillRule="evenodd" clipRule="evenodd" d="M150.856 83.5361L144.043 75.9711L143.481 68.1285L139.822 72.4883L135.944 90.9836L165.386 85.3822L150.856 83.5361Z" fill="url(#paint5_linear)"/>
<path fillRule="evenodd" clipRule="evenodd" d="M104.917 109.136C101.186 102.222 99.8391 95.7931 100.876 89.8482L100.38 89.6048C98.2778 95.2887 98.3749 101.302 100.671 107.644L103.077 108.734L104.917 109.136Z" fill="url(#paint6_linear)"/>
<path fillRule="evenodd" clipRule="evenodd" d="M104.917 109.136C101.186 102.222 99.839 95.793 100.876 89.8481C99.318 95.4265 100.052 101.722 103.077 108.734C103.077 108.734 103.69 108.868 104.917 109.136Z" fill="url(#paint7_linear)"/>
<path fillRule="evenodd" clipRule="evenodd" d="M100.453 89.9654C102.155 90.6961 103.034 91.5995 103.089 92.6757C103.746 92.1088 103.983 91.4829 103.8 90.7979C103.524 89.7703 102.029 88.9008 100.537 89.6949L100.5 89.8277L100.453 89.9654Z" fill="url(#paint8_linear)"/>
<path fillRule="evenodd" clipRule="evenodd" d="M100.229 89.5507C102.118 87.6568 103.869 87.4902 105.482 89.0511C104.042 88.8993 102.946 89.0043 102.196 89.366C101.446 89.7277 100.803 89.8528 100.266 89.7411L100.229 89.5507Z" fill="url(#paint9_linear)"/>
<path fillRule="evenodd" clipRule="evenodd" d="M100.488 90.0173C100.215 88.5644 100.362 87.4852 100.927 86.7798C101.493 86.0744 102.555 85.944 104.115 86.3885C102.41 87.0428 101.432 87.8594 101.18 88.8383C100.928 89.8171 100.697 90.2102 100.488 90.0173Z" fill="url(#paint10_linear)"/>
<path fillRule="evenodd" clipRule="evenodd" d="M100.287 89.6173C98.8544 88.1146 97.693 87.8117 96.8031 88.7086C96.8334 87.6421 97.2766 87.0056 98.1326 86.7989C98.9887 86.5923 99.8161 87.5176 100.615 89.5749L100.287 89.6173Z" fill="url(#paint11_linear)"/>
<path fillRule="evenodd" clipRule="evenodd" d="M100.358 89.9138C98.6159 89.8274 97.6514 90.5361 97.4648 92.0398C96.6829 91.0812 96.7063 90.199 97.5348 89.393C98.3632 88.587 99.4254 88.6849 100.721 89.6866L100.358 89.9138Z" fill="url(#paint12_linear)"/>
<path d="M100.364 90.1914C100.586 90.132 100.717 89.9044 100.658 89.6829C100.598 89.4615 100.371 89.33 100.149 89.3894C99.9277 89.4487 99.7962 89.6764 99.8556 89.8978C99.9149 90.1193 100.143 90.2507 100.364 90.1914Z" fill="url(#paint13_linear)"/>
<path d="M100.935 90.1819C101.156 90.1225 101.287 89.8949 101.228 89.6734C101.169 89.4519 100.941 89.3205 100.72 89.3799C100.498 89.4392 100.367 89.6668 100.426 89.8883C100.485 90.1098 100.713 90.2412 100.935 90.1819Z" fill="url(#paint14_linear)"/>
<path fillRule="evenodd" clipRule="evenodd" d="M166.279 67.525C170.621 72.2777 173.918 78.1142 175.7 84.7618C176.478 87.6658 176.928 90.5804 177.073 93.4662C173.648 94.2765 171.492 94.4884 170.605 94.1017C168.901 93.3582 156.911 92.6287 134.636 91.9132C141.964 86.4366 147.188 82.6493 150.306 80.5511L158.311 69.7135L162.961 70.3991L166.279 67.525Z" fill="url(#paint15_linear)"/>
<path fillRule="evenodd" clipRule="evenodd" d="M167.083 68.4311C171.028 73.0123 174.03 78.5306 175.7 84.7616C176.478 87.6656 176.928 90.5802 177.073 93.4661C173.648 94.2764 171.492 94.4882 170.605 94.1015C168.901 93.3581 156.911 92.6286 134.636 91.913L153.705 83.1591L166.163 81.3078L163.71 75.0188L167.083 68.4311Z" fill="url(#paint16_linear)"/>
<path fillRule="evenodd" clipRule="evenodd" d="M94.3435 100.193C104.108 95.7062 116.515 93.079 131.564 92.3116C116.46 102.056 105.966 110.292 100.08 117.02C98.0979 113.744 96.5392 110.136 95.4983 106.252C94.9574 104.233 94.575 102.209 94.3435 100.193Z" fill="url(#paint17_linear)"/>
<path fillRule="evenodd" clipRule="evenodd" d="M119.481 108.437L117.618 108.165L115.142 107.245C112.409 101.078 111.892 95.0867 113.593 89.27L114.105 89.4781C113.485 95.4809 115.277 101.801 119.481 108.437Z" fill="url(#paint18_linear)"/>
<path fillRule="evenodd" clipRule="evenodd" d="M119.481 108.437C118.239 108.255 117.618 108.164 117.618 108.164C114.111 101.38 112.94 95.1515 114.105 89.478C113.485 95.4808 115.277 101.8 119.481 108.437Z" fill="url(#paint19_linear)"/>
<path fillRule="evenodd" clipRule="evenodd" d="M113.691 89.6246L113.728 89.484L113.755 89.349C115.188 88.4527 116.741 89.2158 117.087 90.2216C117.318 90.8922 117.126 91.5331 116.51 92.1444C116.38 91.0747 115.44 90.2348 113.691 89.6246Z" fill="url(#paint20_linear)"/>
<path fillRule="evenodd" clipRule="evenodd" d="M113.722 89.3031C114.933 86.9184 116.547 86.2189 118.564 87.2048C117.147 87.5056 116.137 87.9439 115.536 88.5197C114.934 89.0956 114.361 89.4133 113.816 89.4729L113.722 89.3031Z" fill="url(#paint21_linear)"/>
<path fillRule="evenodd" clipRule="evenodd" d="M113.706 89.5704C113.138 88.2058 113.057 87.1197 113.463 86.3122C113.869 85.5047 114.881 85.1562 116.499 85.2668C114.968 86.2612 114.181 87.2633 114.138 88.2732C114.095 89.283 113.951 89.7154 113.706 89.5704Z" fill="url(#paint22_linear)"/>
<path fillRule="evenodd" clipRule="evenodd" d="M113.501 89.289C111.967 87.8899 110.787 87.6688 109.962 88.6255C109.918 87.5595 110.316 86.8936 111.155 86.6278C111.995 86.3619 112.885 87.2273 113.825 89.2239L113.501 89.289Z" fill="url(#paint23_linear)"/>
<path fillRule="evenodd" clipRule="evenodd" d="M113.593 89.5796C111.849 89.615 110.936 90.3892 110.855 91.9023C110.008 91.0006 109.97 90.1188 110.74 89.257C111.51 88.3952 112.576 88.4188 113.939 89.3277L113.593 89.5796Z" fill="url(#paint24_linear)"/>
<path d="M113.59 89.8647C113.812 89.8054 113.943 89.5777 113.884 89.3563C113.824 89.1348 113.597 89.0034 113.375 89.0627C113.154 89.1221 113.022 89.3497 113.082 89.5712C113.141 89.7926 113.369 89.9241 113.59 89.8647Z" fill="url(#paint25_linear)"/>
<path d="M114.159 89.8154C114.38 89.7561 114.512 89.5284 114.452 89.307C114.393 89.0855 114.165 88.9541 113.944 89.0134C113.722 89.0727 113.591 89.3004 113.65 89.5219C113.71 89.7433 113.937 89.8748 114.159 89.8154Z" fill="url(#paint26_linear)"/>
<path fillRule="evenodd" clipRule="evenodd" d="M96.871 110.471C97.3055 109.027 98.5285 107.884 100.54 107.042C105.866 104.813 102.723 98.8876 110.096 97.9343C117.469 96.981 125.865 93.4072 131.498 92.3464L120.308 107.573L98.4117 113.98C97.8485 112.844 97.3339 111.673 96.871 110.471Z" fill="url(#paint27_linear)"/>
<path fillRule="evenodd" clipRule="evenodd" d="M97.7553 112.591C118.38 93.1859 144.598 84.9476 176.409 87.8763C180.383 109.004 167.453 129.951 146.344 135.607C126.403 140.95 105.961 130.827 97.7553 112.591Z" fill="url(#paint28_linear)"/>
<path fillRule="evenodd" clipRule="evenodd" d="M128.831 136.477C132.171 133.1 133.493 127.421 132.764 120.398C131.065 104.015 135.969 96.7218 156.926 97.0491C169.665 97.2481 176.249 94.7216 176.677 89.4695C179.727 110.048 166.923 130.093 146.344 135.607C140.44 137.189 134.492 137.415 128.831 136.477Z" fill="url(#paint29_linear)"/>
<path fillRule="evenodd" clipRule="evenodd" d="M107.118 125.719C106.457 120.858 109.06 116.565 114.926 112.842C127.127 105.097 127.294 92.4187 140.206 94.5114C148.813 95.9065 154.903 96.7399 158.475 97.0115C142.482 96.802 134.306 101.102 133.947 109.912C133.498 120.951 134.751 132.361 130.143 136.673C121.479 135.521 113.418 131.647 107.118 125.719Z" fill="url(#paint30_linear)"/>
<path fillRule="evenodd" clipRule="evenodd" d="M130.104 136.667C140.547 135.006 139.021 124.22 146.232 122.288C153.459 120.351 163.081 119.784 164.271 110.306C164.974 104.713 169.258 99.6678 177.123 95.1702C177.285 113.641 165.014 130.605 146.344 135.607C140.881 137.071 135.381 137.374 130.104 136.667L130.104 136.667Z" fill="url(#paint31_linear)"/>
<path fillRule="evenodd" clipRule="evenodd" d="M100.585 77.6506C100.854 75.3645 101.881 74.1663 103.665 74.056C106.342 73.8905 106.2 76.3396 108.942 73.9875C111.684 71.6354 114.888 73.8182 114.888 73.8182C114.888 73.8182 110.12 75.0957 100.585 77.6506Z" fill="url(#paint32_linear)"/>
<path fillRule="evenodd" clipRule="evenodd" d="M146.408 59.166C135.588 62.0651 130.179 63.5147 130.179 63.5147C130.179 63.5147 132.088 59.552 136.118 60.3074C140.147 61.0629 138.618 58.7371 141.342 57.381C143.158 56.477 144.847 57.072 146.408 59.166Z" fill="url(#paint33_linear)"/>
</g>
</g>
<g filter="url(#filter1_d)">
<rect x="48" y="36" width="128" height="160" rx="24" transform="rotate(-15 48 36)" fill="#FCFCFD"/>
<path d="M151.75 144.855C151.976 144.855 152.198 144.763 152.358 144.603C152.517 144.442 152.609 144.221 152.609 143.995C152.609 143.769 152.517 143.547 152.358 143.387C152.198 143.227 151.976 143.135 151.75 143.135C151.524 143.135 151.302 143.227 151.142 143.387C150.983 143.547 150.891 143.769 150.891 143.995C150.891 144.221 150.983 144.442 151.142 144.603C151.302 144.763 151.524 144.855 151.75 144.855Z" fill="#3371F5"/>
<path d="M185.438 144.382C185.212 144.382 184.99 144.474 184.83 144.633C184.67 144.794 184.578 145.015 184.578 145.241C184.578 145.468 184.67 145.689 184.83 145.849C184.99 146.009 185.212 146.101 185.438 146.101C185.663 146.101 185.885 146.009 186.045 145.849C186.205 145.689 186.297 145.468 186.297 145.241C186.297 145.015 186.205 144.794 186.045 144.633C185.885 144.474 185.663 144.382 185.438 144.382Z" fill="#3371F5"/>
<rect x="48.6124" y="36.3536" width="127" height="159" rx="23.5" transform="rotate(-15 48.6124 36.3536)" stroke="#F4F5F6"/>
</g>
<rect x="96" y="67" width="64" height="64" rx="32" fill="#58C27D"/>
<path d="M142.656 90.2499L127.819 82.0819C127.62 81.9727 127.38 81.9727 127.181 82.0819L112.344 90.2499C112.132 90.3666 112 90.5897 112 90.832V96.1409C112 96.5077 112.297 96.8049 112.662 96.8049C113.028 96.8049 113.325 96.5077 113.325 96.1409V91.9541L117.763 94.3974V99.105C117.763 99.347 117.894 99.5699 118.106 99.6866L121.285 101.441C121.385 101.496 121.495 101.523 121.605 101.523C121.721 101.523 121.838 101.493 121.942 101.431C122.143 101.311 122.267 101.094 122.267 100.859V96.8768L126.838 99.393V114.214L113.325 106.775V101.852C113.325 101.485 113.028 101.188 112.662 101.188C112.297 101.188 112 101.485 112 101.852V107.168C112 107.41 112.132 107.633 112.344 107.75L127.181 115.918C127.281 115.973 127.39 116 127.5 116C127.61 116 127.719 115.973 127.819 115.918L142.656 107.75C142.868 107.633 143 107.41 143 107.168V90.832C143 90.5897 142.868 90.3666 142.656 90.2499ZM127.5 98.2425L122.984 95.7562L136.445 88.3459L140.961 90.832L127.5 98.2425ZM135.069 87.5882L121.608 94.9987L119.777 93.9912L133.239 86.5807L135.069 87.5882ZM127.5 83.4217L131.862 85.8232L118.401 93.2335L114.039 90.832L127.5 83.4217ZM119.088 98.7126V95.1266L120.942 96.1476V99.7359L119.088 98.7126ZM139.291 108.088V102.32C139.291 101.953 138.994 101.656 138.628 101.656C138.262 101.656 137.966 101.953 137.966 102.32V108.817L128.162 114.214V99.393L141.675 91.9541V106.775L139.291 108.088Z" fill="white"/>
<rect width="8" height="8" rx="2" transform="matrix(0.939693 -0.34202 -0.34202 -0.939693 220.104 35.3804)" fill="#FFD166"/>
<rect width="12" height="12" rx="2" transform="matrix(0.939693 -0.34202 -0.34202 -0.939693 21.1042 206.38)" fill="#CDB4DB"/>
<defs>
<filter id="filter0_d" x="36.8047" y="3.65405" width="190.875" height="271.402" filterUnits="userSpaceOnUse" color-interpolation-filters="sRGB">
<feFlood flood-opacity="0" result="BackgroundImageFix"/>
<feColorMatrix in="SourceAlpha" type="matrix" values="0 0 0 0 0 0 0 0 0 0 0 0 0 0 0 0 0 0 127 0" result="hardAlpha"/>
<feMorphology radius="48" operator="erode" in="SourceAlpha" result="effect1_dropShadow"/>
<feOffset dy="64"/>
<feGaussianBlur stdDeviation="32"/>
<feColorMatrix type="matrix" values="0 0 0 0 0.0583333 0 0 0 0 0.0583333 0 0 0 0 0.0583333 0 0 0 0.08 0"/>
<feBlend mode="multiply" in2="BackgroundImageFix" result="effect1_dropShadow"/>
<feBlend mode="normal" in="SourceGraphic" in2="effect1_dropShadow" result="shape"/>
</filter>
<filter id="filter1_d" x="40" y="2.87109" width="181.05" height="235.677" filterUnits="userSpaceOnUse" color-interpolation-filters="sRGB">
<feFlood flood-opacity="0" result="BackgroundImageFix"/>
<feColorMatrix in="SourceAlpha" type="matrix" values="0 0 0 0 0 0 0 0 0 0 0 0 0 0 0 0 0 0 127 0" result="hardAlpha"/>
<feMorphology radius="24" operator="erode" in="SourceAlpha" result="effect1_dropShadow"/>
<feOffset dy="40"/>
<feGaussianBlur stdDeviation="16"/>
<feColorMatrix type="matrix" values="0 0 0 0 0.0583333 0 0 0 0 0.0583333 0 0 0 0 0.0583333 0 0 0 0.12 0"/>
<feBlend mode="multiply" in2="BackgroundImageFix" result="effect1_dropShadow"/>
<feBlend mode="normal" in="SourceGraphic" in2="effect1_dropShadow" result="shape"/>
</filter>
<linearGradient id="paint0_linear" x1="115.444" y1="57.9273" x2="127.011" y2="132.405" gradientUnits="userSpaceOnUse">
<stop stop-color="#EEFFFD"/>
<stop offset="1" stop-color="#B7FFF6"/>
</linearGradient>
<linearGradient id="paint1_linear" x1="123.676" y1="88.6497" x2="125.382" y2="91.9155" gradientUnits="userSpaceOnUse">
<stop stop-color="#EEFFFD"/>
<stop offset="1" stop-color="#B7FFF6"/>
</linearGradient>
<linearGradient id="paint2_linear" x1="149.974" y1="73.2832" x2="148.614" y2="88.29" gradientUnits="userSpaceOnUse">
<stop stop-color="#30A0DE"/>
<stop offset="1" stop-color="#194383"/>
</linearGradient>
<linearGradient id="paint3_linear" x1="130.866" y1="77.5771" x2="134.203" y2="98.8669" gradientUnits="userSpaceOnUse">
<stop stop-color="#F9BB49"/>
<stop offset="1" stop-color="#F08523"/>
</linearGradient>
<linearGradient id="paint4_linear" x1="132.089" y1="82.4071" x2="134.313" y2="96.6003" gradientUnits="userSpaceOnUse">
<stop stop-color="#F9BB49"/>
<stop offset="1" stop-color="#F08523"/>
</linearGradient>
<linearGradient id="paint5_linear" x1="146.116" y1="75.7677" x2="147.244" y2="90.4945" gradientUnits="userSpaceOnUse">
<stop stop-color="#30A0DE"/>
<stop offset="1" stop-color="#194383"/>
</linearGradient>
<linearGradient id="paint6_linear" x1="101.937" y1="103.408" x2="96.8793" y2="89.3717" gradientUnits="userSpaceOnUse">
<stop stop-color="#DB593D"/>
<stop offset="1" stop-color="#F88461"/>
</linearGradient>
<linearGradient id="paint7_linear" x1="101.48" y1="98.3475" x2="100.166" y2="88.8751" gradientUnits="userSpaceOnUse">
<stop stop-color="#CD4C30"/>
<stop offset="1" stop-color="#F88461" stop-opacity="0"/>
</linearGradient>
<linearGradient id="paint8_linear" x1="102.228" y1="93.458" x2="102.187" y2="90.0507" gradientUnits="userSpaceOnUse">
<stop stop-color="#13DBBF"/>
<stop offset="1" stop-color="#08B58B"/>
</linearGradient>
<linearGradient id="paint9_linear" x1="101.102" y1="89.465" x2="101.638" y2="88.4617" gradientUnits="userSpaceOnUse">
<stop stop-color="#13DBBF"/>
<stop offset="1" stop-color="#08B58B"/>
</linearGradient>
<linearGradient id="paint10_linear" x1="104.447" y1="86.0859" x2="101.52" y2="89.0587" gradientUnits="userSpaceOnUse">
<stop stop-color="#13DBBF"/>
<stop offset="1" stop-color="#08B58B"/>
</linearGradient>
<linearGradient id="paint11_linear" x1="97.9226" y1="90.6358" x2="98.0609" y2="87.6123" gradientUnits="userSpaceOnUse">
<stop stop-color="#13DBBF"/>
<stop offset="1" stop-color="#08B58B"/>
</linearGradient>
<linearGradient id="paint12_linear" x1="101.368" y1="90.4579" x2="97.9064" y2="88.6159" gradientUnits="userSpaceOnUse">
<stop stop-color="#13DBBF"/>
<stop offset="1" stop-color="#08B58B"/>
</linearGradient>
<linearGradient id="paint13_linear" x1="99.764" y1="89.7837" x2="100.529" y2="89.9416" gradientUnits="userSpaceOnUse">
<stop stop-color="#E3F35C"/>
<stop offset="1" stop-color="#C3E22F"/>
</linearGradient>
<linearGradient id="paint14_linear" x1="100.335" y1="89.7742" x2="101.1" y2="89.9321" gradientUnits="userSpaceOnUse">
<stop stop-color="#E3F35C"/>
<stop offset="1" stop-color="#C3E22F"/>
</linearGradient>
<linearGradient id="paint15_linear" x1="156.371" y1="79.3839" x2="154.238" y2="95.7022" gradientUnits="userSpaceOnUse">
<stop stop-color="#30A0DE"/>
<stop offset="1" stop-color="#194383"/>
</linearGradient>
<linearGradient id="paint16_linear" x1="156.472" y1="83.1581" x2="154.539" y2="95.6544" gradientUnits="userSpaceOnUse">
<stop stop-color="#30A0DE"/>
<stop offset="1" stop-color="#194383"/>
</linearGradient>
<linearGradient id="paint17_linear" x1="131.441" y1="96.6245" x2="113.5" y2="112.445" gradientUnits="userSpaceOnUse">
<stop stop-color="#68C179"/>
<stop offset="1" stop-color="#25A062"/>
</linearGradient>
<linearGradient id="paint18_linear" x1="115.772" y1="102.905" x2="110.868" y2="88.8051" gradientUnits="userSpaceOnUse">
<stop stop-color="#DB593D"/>
<stop offset="1" stop-color="#F88461"/>
</linearGradient>
<linearGradient id="paint19_linear" x1="115.253" y1="97.8438" x2="113.736" y2="88.367" gradientUnits="userSpaceOnUse">
<stop stop-color="#CD4C30"/>
<stop offset="1" stop-color="#F88461" stop-opacity="0"/>
</linearGradient>
<linearGradient id="paint20_linear" x1="115.37" y1="92.9895" x2="115.378" y2="89.6304" gradientUnits="userSpaceOnUse">
<stop stop-color="#13DBBF"/>
<stop offset="1" stop-color="#08B58B"/>
</linearGradient>
<linearGradient id="paint21_linear" x1="114.421" y1="88.5124" x2="114.894" y2="87.4808" gradientUnits="userSpaceOnUse">
<stop stop-color="#13DBBF"/>
<stop offset="1" stop-color="#08B58B"/>
</linearGradient>
<linearGradient id="paint22_linear" x1="116.689" y1="84.6252" x2="114.007" y2="88.073" gradientUnits="userSpaceOnUse">
<stop stop-color="#13DBBF"/>
<stop offset="1" stop-color="#08B58B"/>
</linearGradient>
<linearGradient id="paint23_linear" x1="110.968" y1="90.0501" x2="111.141" y2="87.4693" gradientUnits="userSpaceOnUse">
<stop stop-color="#13DBBF"/>
<stop offset="1" stop-color="#08B58B"/>
</linearGradient>
<linearGradient id="paint24_linear" x1="114.668" y1="90.4183" x2="111.148" y2="88.4355" gradientUnits="userSpaceOnUse">
<stop stop-color="#13DBBF"/>
<stop offset="1" stop-color="#08B58B"/>
</linearGradient>
<linearGradient id="paint25_linear" x1="112.99" y1="89.4571" x2="113.755" y2="89.6149" gradientUnits="userSpaceOnUse">
<stop stop-color="#E3F35C"/>
<stop offset="1" stop-color="#C3E22F"/>
</linearGradient>
<linearGradient id="paint26_linear" x1="113.559" y1="89.4078" x2="114.324" y2="89.5656" gradientUnits="userSpaceOnUse">
<stop stop-color="#E3F35C"/>
<stop offset="1" stop-color="#C3E22F"/>
</linearGradient>
<linearGradient id="paint27_linear" x1="129.823" y1="98.4069" x2="113.931" y2="107.306" gradientUnits="userSpaceOnUse">
<stop stop-color="#68C179"/>
<stop offset="1" stop-color="#25A062"/>
</linearGradient>
<linearGradient id="paint28_linear" x1="141.229" y1="102.494" x2="136.775" y2="128.797" gradientUnits="userSpaceOnUse">
<stop stop-color="#77EBFF"/>
<stop offset="1" stop-color="#4D86DE"/>
</linearGradient>
<linearGradient id="paint29_linear" x1="178.391" y1="100.499" x2="142.526" y2="152.953" gradientUnits="userSpaceOnUse">
<stop stop-color="#91F6FF"/>
<stop offset="1" stop-color="#4D86DE"/>
</linearGradient>
<linearGradient id="paint30_linear" x1="136.757" y1="98.9419" x2="131.051" y2="138.636" gradientUnits="userSpaceOnUse">
<stop stop-color="#77EBFF"/>
<stop offset="1" stop-color="#4D86DE"/>
</linearGradient>
<linearGradient id="paint31_linear" x1="161.671" y1="111.359" x2="138.53" y2="150.485" gradientUnits="userSpaceOnUse">
<stop stop-color="#91F6FF"/>
<stop offset="1" stop-color="#4D86DE"/>
</linearGradient>
<linearGradient id="paint32_linear" x1="109.173" y1="73.8765" x2="100.961" y2="79.3662" gradientUnits="userSpaceOnUse">
<stop stop-color="#C1FFF7"/>
<stop offset="1" stop-color="#93E9DE"/>
</linearGradient>
<linearGradient id="paint33_linear" x1="139.923" y1="59.2321" x2="130.605" y2="65.4615" gradientUnits="userSpaceOnUse">
<stop stop-color="#C1FFF7"/>
<stop offset="1" stop-color="#93E9DE"/>
</linearGradient>
<clipPath id="clip0">
<rect x="52.8047" y="34.7124" width="120" height="166" rx="24" transform="rotate(-15 52.8047 34.7124)" fill="white"/>
</clipPath>
</defs>
</svg>
