<svg width="22" height="21" viewBox="0 0 22 21" fill="none" xmlns="http://www.w3.org/2000/svg">
    <path d="M17.4194 13.2589C16.9273 13.2589 16.4598 13.4519 16.1071 13.8008C15.7544 14.1538 15.5576 14.6136 15.5576 15.1062C15.5576 15.5988 15.7503 16.0585 16.1071 16.4116C16.4639 16.7605 16.9273 16.9534 17.4194 16.9534C18.4282 16.9534 19.2484 16.1242 19.2484 15.1062C19.2484 14.0881 18.4282 13.2589 17.4194 13.2589ZM17.4194 16.1324C16.8535 16.1324 16.3777 15.6644 16.3777 15.1062C16.3777 14.5479 16.8535 14.0799 17.4194 14.0799C17.9771 14.0799 18.4282 14.5397 18.4282 15.1062C18.4282 15.6727 17.9771 16.1324 17.4194 16.1324ZM17.8951 7.10558C17.8213 7.03579 17.7229 6.99885 17.6203 6.99885H15.5165C15.291 6.99885 15.1065 7.18357 15.1065 7.40935V10.7754C15.1065 11.0012 15.291 11.1859 15.5165 11.1859H18.8547C19.0803 11.1859 19.2648 11.0012 19.2648 10.7754V8.52179C19.2648 8.40685 19.2156 8.29602 19.1295 8.21803L17.8951 7.10558ZM18.4446 10.3649H15.9266V7.81574H17.4604L18.4446 8.70241V10.3649ZM7.40488 13.2589C6.91277 13.2589 6.44526 13.4519 6.09258 13.8008C5.7399 14.1538 5.54306 14.6136 5.54306 15.1062C5.54306 15.5988 5.7358 16.0585 6.09258 16.4116C6.44936 16.7605 6.91277 16.9534 7.40488 16.9534C8.41371 16.9534 9.2339 16.1242 9.2339 15.1062C9.2339 14.0881 8.41371 13.2589 7.40488 13.2589ZM7.40488 16.1324C6.83895 16.1324 6.36324 15.6644 6.36324 15.1062C6.36324 14.5479 6.83895 14.0799 7.40488 14.0799C7.96261 14.0799 8.41371 14.5397 8.41371 15.1062C8.41371 15.6727 7.96261 16.1324 7.40488 16.1324ZM4.66955 13.7638H3.84527V12.6719C3.84527 12.4461 3.66072 12.2614 3.43517 12.2614C3.20962 12.2614 3.02508 12.4461 3.02508 12.6719V14.1743C3.02508 14.4001 3.20962 14.5848 3.43517 14.5848H4.66955C4.89511 14.5848 5.07965 14.4001 5.07965 14.1743C5.07965 13.9486 4.89511 13.7638 4.66955 13.7638ZM6.74873 11.5266C6.74873 11.3009 6.56419 11.1161 6.33864 11.1161H1.3642C1.13864 11.1161 0.954102 11.3009 0.954102 11.5266C0.954102 11.7524 1.13864 11.9371 1.3642 11.9371H6.33864C6.56419 11.9371 6.74873 11.7565 6.74873 11.5266ZM2.19669 10.0447L7.17113 10.0735C7.39668 10.0735 7.58122 9.89286 7.58532 9.66708C7.58943 9.4372 7.40488 9.25248 7.17933 9.25248L2.20489 9.22375C2.20079 9.22375 2.20079 9.22375 2.20079 9.22375C1.97524 9.22375 1.79069 9.40436 1.79069 9.63014C1.78659 9.86001 1.97114 10.0447 2.19669 10.0447ZM3.03328 8.18108H8.00772C8.23327 8.18108 8.41782 7.99636 8.41782 7.77058C8.41782 7.54481 8.23327 7.36009 8.00772 7.36009H3.03328C2.80773 7.36009 2.62318 7.54481 2.62318 7.77058C2.62318 7.99636 2.80773 8.18108 3.03328 8.18108ZM20.9421 7.62691L18.0058 5.19266C17.932 5.13109 17.8418 5.09825 17.7434 5.09825H14.2904V3.62046C14.2904 3.39468 14.1058 3.20996 13.8803 3.20996H3.43517C3.20962 3.20996 3.02508 3.39468 3.02508 3.62046V6.6253C3.02508 6.85107 3.20962 7.0358 3.43517 7.0358C3.66072 7.0358 3.84527 6.85107 3.84527 6.6253V4.03096H13.4743V13.7638H10.1115C9.88595 13.7638 9.70141 13.9486 9.70141 14.1743C9.70141 14.4001 9.88595 14.5848 10.1115 14.5848H15.1188C15.3443 14.5848 15.5288 14.4001 15.5288 14.1743C15.5288 13.9486 15.3443 13.7638 15.1188 13.7638H14.2945V5.91924H17.5998L20.2736 8.13593L20.2449 13.7556H19.8184C19.5929 13.7556 19.4083 13.9404 19.4083 14.1661C19.4083 14.3919 19.5929 14.5766 19.8184 14.5766H20.6509C20.8765 14.5766 21.061 14.396 21.061 14.1702L21.0938 7.9471C21.0897 7.82395 21.0364 7.7049 20.9421 7.62691Z" fill="#5F626A"/>
</svg>
